<?xml version="1.0" encoding="UTF-8" standalone="no"?>
<!DOCTYPE svg PUBLIC "-//W3C//DTD SVG 1.1//EN"
 "http://www.w3.org/Graphics/SVG/1.1/DTD/svg11.dtd">
<!-- Generated by graphviz version 2.36.0 (20140111.2315)
 -->
<!-- Title: G Pages: 1 -->
<svg width="1839pt" height="524pt"
 viewBox="0.00 0.00 1839.00 524.00" xmlns="http://www.w3.org/2000/svg" xmlns:xlink="http://www.w3.org/1999/xlink">
<g id="graph0" class="graph" transform="scale(1 1) rotate(0) translate(4 520)">
<title>G</title>
<polygon fill="white" stroke="none" points="-4,4 -4,-520 1835,-520 1835,4 -4,4"/>
<!-- ragdoll.app.ClassFinder -->
<g id="node1" class="node"><title>ragdoll.app.ClassFinder</title>
<polygon fill="none" stroke="black" points="-0.0761719,-394.803 -0.0761719,-483.197 166.076,-483.197 166.076,-394.803 -0.0761719,-394.803"/>
<text text-anchor="start" x="44.7832" y="-472.797" font-family="Times New Roman" font-size="8.00">ragdoll.app.ClassFinder</text>
<polyline fill="none" stroke="black" points="-0.0761719,-465.998 166.076,-465.998 "/>
<text text-anchor="start" x="7.92383" y="-455.598" font-family="Times New Roman" font-size="8.00">&#45; BAD_PACKAGE_ERROR : java.lang.String</text>
<text text-anchor="start" x="23.9961" y="-446.399" font-family="Times New Roman" font-size="8.00">&#45; CLASS_SUFFIX : java.lang.String</text>
<text text-anchor="start" x="62.5254" y="-437.2" font-family="Times New Roman" font-size="8.00">&#45; DOT : char</text>
<text text-anchor="start" x="58.0039" y="-428" font-family="Times New Roman" font-size="8.00">&#45; SLASH : char</text>
<polyline fill="none" stroke="black" points="-0.0761719,-421.201 166.076,-421.201 "/>
<text text-anchor="start" x="46.8555" y="-410.801" font-family="Times New Roman" font-size="8.00">+ find(s0: String): List</text>
<text text-anchor="start" x="36.1133" y="-401.602" font-family="Times New Roman" font-size="8.00">&#45; find(f0: Files1: String): List</text>
</g>
<!-- ragdoll.app.Ragdoll -->
<g id="node2" class="node"><title>ragdoll.app.Ragdoll</title>
<polygon fill="none" stroke="black" points="183.748,-413.201 183.748,-464.799 282.252,-464.799 282.252,-413.201 183.748,-413.201"/>
<text text-anchor="start" x="201.229" y="-454.399" font-family="Times New Roman" font-size="8.00">ragdoll.app.Ragdoll</text>
<polyline fill="none" stroke="black" points="183.748,-447.6 282.252,-447.6 "/>
<text text-anchor="start" x="232" y="-437.2" font-family="Times New Roman" font-size="8.00"> </text>
<polyline fill="none" stroke="black" points="183.748,-430.4 282.252,-430.4 "/>
<text text-anchor="start" x="191.748" y="-420" font-family="Times New Roman" font-size="8.00">+ main(s0: String[]): void</text>
</g>
<!-- ragdoll.asm.ClassDeclarationVisitor -->
<g id="node3" class="node"><title>ragdoll.asm.ClassDeclarationVisitor</title>
<polygon fill="none" stroke="black" points="300.623,-413.201 300.623,-464.799 527.377,-464.799 527.377,-413.201 300.623,-413.201"/>
<text text-anchor="start" x="356.031" y="-454.399" font-family="Times New Roman" font-size="8.00">ragdoll.asm.ClassDeclarationVisitor</text>
<polyline fill="none" stroke="black" points="300.623,-447.6 527.377,-447.6 "/>
<text text-anchor="start" x="370.014" y="-437.2" font-family="Times New Roman" font-size="8.00">&#45; c : ragdoll.code.api.IClass</text>
<polyline fill="none" stroke="black" points="300.623,-430.4 527.377,-430.4 "/>
<text text-anchor="start" x="308.623" y="-420" font-family="Times New Roman" font-size="8.00">+ visit(i0: inti1: ints2: Strings3: Strings4: Strings5: String[]): void</text>
</g>
<!-- org.objectweb.asm.ClassVisitor -->
<g id="node4" class="node"><title>org.objectweb.asm.ClassVisitor</title>
<polygon fill="none" stroke="black" points="609.32,-245 609.32,-281 726.68,-281 726.68,-245 609.32,-245"/>
<text text-anchor="middle" x="668" y="-261.2" font-family="Times New Roman" font-size="8.00">org.objectweb.asm.ClassVisitor</text>
</g>
<!-- ragdoll.asm.ClassDeclarationVisitor&#45;&gt;org.objectweb.asm.ClassVisitor -->
<g id="edge1" class="edge"><title>ragdoll.asm.ClassDeclarationVisitor&#45;&gt;org.objectweb.asm.ClassVisitor</title>
<path fill="none" stroke="black" d="M450.392,-413.07C499.722,-379.277 587.109,-319.414 634.756,-286.773"/>
<polygon fill="none" stroke="black" points="636.9,-289.547 643.172,-281.008 632.944,-283.772 636.9,-289.547"/>
</g>
<!-- ragdoll.asm.ClassFieldVisitor -->
<g id="node5" class="node"><title>ragdoll.asm.ClassFieldVisitor</title>
<polygon fill="none" stroke="black" points="545.201,-413.201 545.201,-464.799 790.799,-464.799 790.799,-413.201 545.201,-413.201"/>
<text text-anchor="start" x="620.465" y="-454.399" font-family="Times New Roman" font-size="8.00">ragdoll.asm.ClassFieldVisitor</text>
<polyline fill="none" stroke="black" points="545.201,-447.6 790.799,-447.6 "/>
<text text-anchor="start" x="624.014" y="-437.2" font-family="Times New Roman" font-size="8.00">&#45; c : ragdoll.code.api.IClass</text>
<polyline fill="none" stroke="black" points="545.201,-430.4 790.799,-430.4 "/>
<text text-anchor="start" x="553.201" y="-420" font-family="Times New Roman" font-size="8.00">+ visitField(i0: ints1: Strings2: Strings3: Stringo4: Object): FieldVisitor</text>
</g>
<!-- ragdoll.asm.ClassFieldVisitor&#45;&gt;org.objectweb.asm.ClassVisitor -->
<g id="edge2" class="edge"><title>ragdoll.asm.ClassFieldVisitor&#45;&gt;org.objectweb.asm.ClassVisitor</title>
<path fill="none" stroke="black" d="M668,-413.07C668,-380.819 668,-324.824 668,-291.408"/>
<polygon fill="none" stroke="black" points="671.5,-291.008 668,-281.008 664.5,-291.008 671.5,-291.008"/>
</g>
<!-- ragdoll.asm.ClassMethodVisitor -->
<g id="node6" class="node"><title>ragdoll.asm.ClassMethodVisitor</title>
<polygon fill="none" stroke="black" points="808.422,-413.201 808.422,-464.799 1073.58,-464.799 1073.58,-413.201 808.422,-413.201"/>
<text text-anchor="start" x="889.244" y="-454.399" font-family="Times New Roman" font-size="8.00">ragdoll.asm.ClassMethodVisitor</text>
<polyline fill="none" stroke="black" points="808.422,-447.6 1073.58,-447.6 "/>
<text text-anchor="start" x="897.014" y="-437.2" font-family="Times New Roman" font-size="8.00">&#45; c : ragdoll.code.api.IClass</text>
<polyline fill="none" stroke="black" points="808.422,-430.4 1073.58,-430.4 "/>
<text text-anchor="start" x="816.422" y="-420" font-family="Times New Roman" font-size="8.00">+ visitMethod(i0: ints1: Strings2: Strings3: Strings4: String[]): MethodVisitor</text>
</g>
<!-- ragdoll.asm.ClassMethodVisitor&#45;&gt;org.objectweb.asm.ClassVisitor -->
<g id="edge3" class="edge"><title>ragdoll.asm.ClassMethodVisitor&#45;&gt;org.objectweb.asm.ClassVisitor</title>
<path fill="none" stroke="black" d="M901.886,-413.07C848.755,-379.207 754.552,-319.165 703.413,-286.571"/>
<polygon fill="none" stroke="black" points="704.999,-283.431 694.685,-281.008 701.237,-289.334 704.999,-283.431"/>
</g>
<!-- ragdoll.code.api.IClass -->
<g id="node7" class="node"><title>ragdoll.code.api.IClass</title>
<polygon fill="none" stroke="black" points="1475.88,-82.8027 1475.88,-163.197 1636.12,-163.197 1636.12,-82.8027 1475.88,-82.8027"/>
<text text-anchor="start" x="1538.01" y="-152.797" font-family="Times New Roman" font-size="8.00">«interface»</text>
<text text-anchor="start" x="1519.23" y="-143.598" font-family="Times New Roman" font-size="8.00">ragdoll.code.api.IClass</text>
<polyline fill="none" stroke="black" points="1475.88,-136.799 1636.12,-136.799 "/>
<text text-anchor="start" x="1503.64" y="-126.399" font-family="Times New Roman" font-size="8.00">+ addMethod(i0: IMethod): void</text>
<text text-anchor="start" x="1512.08" y="-117.2" font-family="Times New Roman" font-size="8.00">+ addField(i0: IField): void</text>
<text text-anchor="start" x="1483.88" y="-108" font-family="Times New Roman" font-size="8.00">+ setDeclaration(i0: IClassDeclaration): void</text>
<text text-anchor="start" x="1495.77" y="-98.8012" font-family="Times New Roman" font-size="8.00">+ getDeclaration(): IClassDeclaration</text>
<text text-anchor="start" x="1523.75" y="-89.602" font-family="Times New Roman" font-size="8.00">+ getName(): String</text>
</g>
<!-- ragdoll.code.visitor.api.ITraverser -->
<g id="node8" class="node"><title>ragdoll.code.visitor.api.ITraverser</title>
<polygon fill="none" stroke="black" points="1383.72,-1.20117 1383.72,-44.7988 1508.28,-44.7988 1508.28,-1.20117 1383.72,-1.20117"/>
<text text-anchor="start" x="1428.01" y="-34.3988" font-family="Times New Roman" font-size="8.00">«interface»</text>
<text text-anchor="start" x="1391.72" y="-25.1996" font-family="Times New Roman" font-size="8.00">ragdoll.code.visitor.api.ITraverser</text>
<polyline fill="none" stroke="black" points="1383.72,-18.4004 1508.28,-18.4004 "/>
<text text-anchor="start" x="1403.22" y="-8.00039" font-family="Times New Roman" font-size="8.00">+ accept(i0: IVisitor): void</text>
</g>
<!-- ragdoll.code.api.IClass&#45;&gt;ragdoll.code.visitor.api.ITraverser -->
<g id="edge4" class="edge"><title>ragdoll.code.api.IClass&#45;&gt;ragdoll.code.visitor.api.ITraverser</title>
<path fill="none" stroke="black" stroke-dasharray="5,2" d="M1511.89,-82.7043C1500.25,-72.3346 1487.94,-61.3608 1477.14,-51.7425"/>
<polygon fill="none" stroke="black" points="1479.37,-49.0453 1469.58,-45.0065 1474.72,-54.272 1479.37,-49.0453"/>
</g>
<!-- ragdoll.code.api.IClassComponent -->
<g id="node9" class="node"><title>ragdoll.code.api.IClassComponent</title>
<polygon fill="none" stroke="black" points="1272.57,-101.201 1272.57,-144.799 1399.43,-144.799 1399.43,-101.201 1272.57,-101.201"/>
<text text-anchor="start" x="1318.01" y="-134.399" font-family="Times New Roman" font-size="8.00">«interface»</text>
<text text-anchor="start" x="1280.57" y="-125.2" font-family="Times New Roman" font-size="8.00">ragdoll.code.api.IClassComponent</text>
<polyline fill="none" stroke="black" points="1272.57,-118.4 1399.43,-118.4 "/>
<text text-anchor="start" x="1335" y="-108" font-family="Times New Roman" font-size="8.00"> </text>
</g>
<!-- ragdoll.code.api.IClassComponent&#45;&gt;ragdoll.code.visitor.api.ITraverser -->
<g id="edge5" class="edge"><title>ragdoll.code.api.IClassComponent&#45;&gt;ragdoll.code.visitor.api.ITraverser</title>
<path fill="none" stroke="black" stroke-dasharray="5,2" d="M1359.6,-100.977C1375.69,-86.6376 1397.18,-67.4919 1414.7,-51.882"/>
<polygon fill="none" stroke="black" points="1417.3,-54.2541 1422.44,-44.9887 1412.65,-49.0275 1417.3,-54.2541"/>
</g>
<!-- ragdoll.code.api.IClassDeclaration -->
<g id="node10" class="node"><title>ragdoll.code.api.IClassDeclaration</title>
<polygon fill="none" stroke="black" points="1103.58,-222.803 1103.58,-303.197 1230.42,-303.197 1230.42,-222.803 1103.58,-222.803"/>
<text text-anchor="start" x="1149.01" y="-292.797" font-family="Times New Roman" font-size="8.00">«interface»</text>
<text text-anchor="start" x="1111.58" y="-283.598" font-family="Times New Roman" font-size="8.00">ragdoll.code.api.IClassDeclaration</text>
<polyline fill="none" stroke="black" points="1103.58,-276.799 1230.42,-276.799 "/>
<text text-anchor="start" x="1130.09" y="-266.399" font-family="Times New Roman" font-size="8.00">+ isAbstract(): boolean</text>
<text text-anchor="start" x="1129.43" y="-257.2" font-family="Times New Roman" font-size="8.00">+ isInterface(): boolean</text>
<text text-anchor="start" x="1126.08" y="-248" font-family="Times New Roman" font-size="8.00">+ getClassName(): String</text>
<text text-anchor="start" x="1112.53" y="-238.801" font-family="Times New Roman" font-size="8.00">+ getNameOfSuperClass(): String</text>
<text text-anchor="start" x="1118.32" y="-229.602" font-family="Times New Roman" font-size="8.00">+ getNameOfInterfaces(): List</text>
</g>
<!-- ragdoll.code.api.IClassDeclaration&#45;&gt;ragdoll.code.api.IClassComponent -->
<g id="edge6" class="edge"><title>ragdoll.code.api.IClassDeclaration&#45;&gt;ragdoll.code.api.IClassComponent</title>
<path fill="none" stroke="black" stroke-dasharray="5,2" d="M1215.43,-222.455C1243.12,-199.843 1277.17,-172.035 1302.02,-151.747"/>
<polygon fill="none" stroke="black" points="1304.54,-154.209 1310.07,-145.173 1300.11,-148.787 1304.54,-154.209"/>
</g>
<!-- ragdoll.code.api.IField -->
<g id="node11" class="node"><title>ragdoll.code.api.IField</title>
<polygon fill="none" stroke="black" points="1255.87,-232.002 1255.87,-293.998 1358.13,-293.998 1358.13,-232.002 1255.87,-232.002"/>
<text text-anchor="start" x="1289.01" y="-283.598" font-family="Times New Roman" font-size="8.00">«interface»</text>
<text text-anchor="start" x="1270.68" y="-274.399" font-family="Times New Roman" font-size="8.00">ragdoll.code.api.IField</text>
<polyline fill="none" stroke="black" points="1255.87,-267.6 1358.13,-267.6 "/>
<text text-anchor="start" x="1266.53" y="-257.2" font-family="Times New Roman" font-size="8.00">+ getFieldName(): String</text>
<text text-anchor="start" x="1263.87" y="-248" font-family="Times New Roman" font-size="8.00">+ getAccessLevel(): String</text>
<text text-anchor="start" x="1276.36" y="-238.801" font-family="Times New Roman" font-size="8.00">+ getType(): String</text>
</g>
<!-- ragdoll.code.api.IField&#45;&gt;ragdoll.code.api.IClassComponent -->
<g id="edge7" class="edge"><title>ragdoll.code.api.IField&#45;&gt;ragdoll.code.api.IClassComponent</title>
<path fill="none" stroke="black" stroke-dasharray="5,2" d="M1313.36,-231.715C1318.16,-208.873 1324.72,-177.66 1329.55,-154.713"/>
<polygon fill="none" stroke="black" points="1333,-155.318 1331.63,-144.812 1326.14,-153.878 1333,-155.318"/>
</g>
<!-- ragdoll.code.api.IMethod -->
<g id="node12" class="node"><title>ragdoll.code.api.IMethod</title>
<polygon fill="none" stroke="black" points="1376.31,-222.803 1376.31,-303.197 1481.69,-303.197 1481.69,-222.803 1376.31,-222.803"/>
<text text-anchor="start" x="1411.01" y="-292.797" font-family="Times New Roman" font-size="8.00">«interface»</text>
<text text-anchor="start" x="1388.46" y="-283.598" font-family="Times New Roman" font-size="8.00">ragdoll.code.api.IMethod</text>
<polyline fill="none" stroke="black" points="1376.31,-276.799 1481.69,-276.799 "/>
<text text-anchor="start" x="1384.31" y="-266.399" font-family="Times New Roman" font-size="8.00">+ getMethodName(): String</text>
<text text-anchor="start" x="1385.87" y="-257.2" font-family="Times New Roman" font-size="8.00">+ getAccessLevel(): String</text>
<text text-anchor="start" x="1387.48" y="-248" font-family="Times New Roman" font-size="8.00">+ getReturnType(): String</text>
<text text-anchor="start" x="1390.14" y="-238.801" font-family="Times New Roman" font-size="8.00">+ getParamTypes(): List</text>
<text text-anchor="start" x="1392.09" y="-229.602" font-family="Times New Roman" font-size="8.00">+ getExceptions(): List</text>
</g>
<!-- ragdoll.code.api.IMethod&#45;&gt;ragdoll.code.api.IClassComponent -->
<g id="edge8" class="edge"><title>ragdoll.code.api.IMethod&#45;&gt;ragdoll.code.api.IClassComponent</title>
<path fill="none" stroke="black" stroke-dasharray="5,2" d="M1402.35,-222.455C1387.58,-200.531 1369.51,-173.723 1355.96,-153.62"/>
<polygon fill="none" stroke="black" points="1358.76,-151.51 1350.27,-145.173 1352.95,-155.422 1358.76,-151.51"/>
</g>
<!-- ragdoll.code.impl.ClassDeclaration -->
<g id="node13" class="node"><title>ragdoll.code.impl.ClassDeclaration</title>
<polygon fill="none" stroke="black" points="1091.35,-371.805 1091.35,-506.195 1230.65,-506.195 1230.65,-371.805 1091.35,-371.805"/>
<text text-anchor="start" x="1104.46" y="-495.795" font-family="Times New Roman" font-size="8.00">ragdoll.code.impl.ClassDeclaration</text>
<polyline fill="none" stroke="black" points="1091.35,-488.996 1230.65,-488.996 "/>
<text text-anchor="start" x="1106.69" y="-478.596" font-family="Times New Roman" font-size="8.00">&#45; nameOfInterfaces : java.util.List</text>
<text text-anchor="start" x="1099.35" y="-469.397" font-family="Times New Roman" font-size="8.00">&#45; nameOfSuperClass : java.lang.String</text>
<text text-anchor="start" x="1112.9" y="-460.198" font-family="Times New Roman" font-size="8.00">&#45; className : java.lang.String</text>
<text text-anchor="start" x="1126.68" y="-450.998" font-family="Times New Roman" font-size="8.00">&#45; isAbstract : boolean</text>
<text text-anchor="start" x="1126.02" y="-441.799" font-family="Times New Roman" font-size="8.00">&#45; isInterface : boolean</text>
<polyline fill="none" stroke="black" points="1091.35,-435 1230.65,-435 "/>
<text text-anchor="start" x="1124.09" y="-424.6" font-family="Times New Roman" font-size="8.00">+ isAbstract(): boolean</text>
<text text-anchor="start" x="1123.43" y="-415.401" font-family="Times New Roman" font-size="8.00">+ isInterface(): boolean</text>
<text text-anchor="start" x="1120.08" y="-406.202" font-family="Times New Roman" font-size="8.00">+ getClassName(): String</text>
<text text-anchor="start" x="1106.53" y="-397.002" font-family="Times New Roman" font-size="8.00">+ getNameOfSuperClass(): String</text>
<text text-anchor="start" x="1112.32" y="-387.803" font-family="Times New Roman" font-size="8.00">+ getNameOfInterfaces(): List</text>
<text text-anchor="start" x="1118.22" y="-378.604" font-family="Times New Roman" font-size="8.00">+ accept(i0: IVisitor): void</text>
</g>
<!-- ragdoll.code.impl.ClassDeclaration&#45;&gt;ragdoll.code.api.IClassDeclaration -->
<g id="edge9" class="edge"><title>ragdoll.code.impl.ClassDeclaration&#45;&gt;ragdoll.code.api.IClassDeclaration</title>
<path fill="none" stroke="black" stroke-dasharray="5,2" d="M1163.29,-371.722C1163.95,-352.364 1164.67,-331.552 1165.3,-313.432"/>
<polygon fill="none" stroke="black" points="1168.79,-313.503 1165.64,-303.388 1161.8,-313.262 1168.79,-313.503"/>
</g>
<!-- ragdoll.code.impl.Field -->
<g id="node14" class="node"><title>ragdoll.code.impl.Field</title>
<polygon fill="none" stroke="black" points="1248.91,-390.203 1248.91,-487.797 1365.09,-487.797 1365.09,-390.203 1248.91,-390.203"/>
<text text-anchor="start" x="1269.56" y="-477.397" font-family="Times New Roman" font-size="8.00">ragdoll.code.impl.Field</text>
<polyline fill="none" stroke="black" points="1248.91,-470.598 1365.09,-470.598 "/>
<text text-anchor="start" x="1259.35" y="-460.198" font-family="Times New Roman" font-size="8.00">&#45; fieldName : java.lang.String</text>
<text text-anchor="start" x="1256.91" y="-450.998" font-family="Times New Roman" font-size="8.00">&#45; accessLevel : java.lang.String</text>
<text text-anchor="start" x="1269.34" y="-441.799" font-family="Times New Roman" font-size="8.00">&#45; type : java.lang.String</text>
<polyline fill="none" stroke="black" points="1248.91,-435 1365.09,-435 "/>
<text text-anchor="start" x="1266.53" y="-424.6" font-family="Times New Roman" font-size="8.00">+ getFieldName(): String</text>
<text text-anchor="start" x="1263.87" y="-415.401" font-family="Times New Roman" font-size="8.00">+ getAccessLevel(): String</text>
<text text-anchor="start" x="1276.36" y="-406.202" font-family="Times New Roman" font-size="8.00">+ getType(): String</text>
<text text-anchor="start" x="1264.22" y="-397.002" font-family="Times New Roman" font-size="8.00">+ accept(i0: IVisitor): void</text>
</g>
<!-- ragdoll.code.impl.Field&#45;&gt;ragdoll.code.api.IField -->
<g id="edge10" class="edge"><title>ragdoll.code.impl.Field&#45;&gt;ragdoll.code.api.IField</title>
<path fill="none" stroke="black" stroke-dasharray="5,2" d="M1307,-389.993C1307,-363.028 1307,-329.761 1307,-304.184"/>
<polygon fill="none" stroke="black" points="1310.5,-304.086 1307,-294.086 1303.5,-304.086 1310.5,-304.086"/>
</g>
<!-- ragdoll.code.impl.Klass -->
<g id="node15" class="node"><title>ragdoll.code.impl.Klass</title>
<polygon fill="none" stroke="black" points="1499.37,-200.404 1499.37,-325.596 1672.63,-325.596 1672.63,-200.404 1499.37,-200.404"/>
<text text-anchor="start" x="1547.9" y="-315.196" font-family="Times New Roman" font-size="8.00">ragdoll.code.impl.Klass</text>
<polyline fill="none" stroke="black" points="1499.37,-308.396 1672.63,-308.396 "/>
<text text-anchor="start" x="1536.35" y="-297.996" font-family="Times New Roman" font-size="8.00">&#45; fieldMap : java.util.HashMap</text>
<text text-anchor="start" x="1546.57" y="-288.797" font-family="Times New Roman" font-size="8.00">&#45; name : java.lang.String</text>
<text text-anchor="start" x="1542.12" y="-279.598" font-family="Times New Roman" font-size="8.00">&#45; methodList : java.util.List</text>
<text text-anchor="start" x="1507.37" y="-270.399" font-family="Times New Roman" font-size="8.00">&#45; declaration : ragdoll.code.api.IClassDeclaration</text>
<polyline fill="none" stroke="black" points="1499.37,-263.6 1672.63,-263.6 "/>
<text text-anchor="start" x="1533.64" y="-253.2" font-family="Times New Roman" font-size="8.00">+ addMethod(i0: IMethod): void</text>
<text text-anchor="start" x="1542.08" y="-244" font-family="Times New Roman" font-size="8.00">+ addField(i0: IField): void</text>
<text text-anchor="start" x="1513.88" y="-234.801" font-family="Times New Roman" font-size="8.00">+ setDeclaration(i0: IClassDeclaration): void</text>
<text text-anchor="start" x="1525.77" y="-225.602" font-family="Times New Roman" font-size="8.00">+ getDeclaration(): IClassDeclaration</text>
<text text-anchor="start" x="1543.22" y="-216.403" font-family="Times New Roman" font-size="8.00">+ accept(i0: IVisitor): void</text>
<text text-anchor="start" x="1553.75" y="-207.204" font-family="Times New Roman" font-size="8.00">+ getName(): String</text>
</g>
<!-- ragdoll.code.impl.Klass&#45;&gt;ragdoll.code.api.IClass -->
<g id="edge11" class="edge"><title>ragdoll.code.impl.Klass&#45;&gt;ragdoll.code.api.IClass</title>
<path fill="none" stroke="black" stroke-dasharray="5,2" d="M1572.58,-200.265C1570.63,-191.29 1568.64,-182.15 1566.75,-173.459"/>
<polygon fill="none" stroke="black" points="1570.13,-172.53 1564.59,-163.502 1563.29,-174.017 1570.13,-172.53"/>
</g>
<!-- ragdoll.code.impl.Method -->
<g id="node16" class="node"><title>ragdoll.code.impl.Method</title>
<polygon fill="none" stroke="black" points="1382.68,-371.805 1382.68,-506.195 1503.32,-506.195 1503.32,-371.805 1382.68,-371.805"/>
<text text-anchor="start" x="1401.34" y="-495.795" font-family="Times New Roman" font-size="8.00">ragdoll.code.impl.Method</text>
<polyline fill="none" stroke="black" points="1382.68,-488.996 1503.32,-488.996 "/>
<text text-anchor="start" x="1392.91" y="-478.596" font-family="Times New Roman" font-size="8.00">&#45; accessLevel : java.lang.String</text>
<text text-anchor="start" x="1397.85" y="-469.397" font-family="Times New Roman" font-size="8.00">&#45; paramTypes : java.util.List</text>
<text text-anchor="start" x="1390.68" y="-460.198" font-family="Times New Roman" font-size="8.00">&#45; methodName : java.lang.String</text>
<text text-anchor="start" x="1394.74" y="-450.998" font-family="Times New Roman" font-size="8.00">&#45; returnType : java.lang.String</text>
<text text-anchor="start" x="1400.23" y="-441.799" font-family="Times New Roman" font-size="8.00">&#45; exceptions : java.util.List</text>
<polyline fill="none" stroke="black" points="1382.68,-435 1503.32,-435 "/>
<text text-anchor="start" x="1398.31" y="-424.6" font-family="Times New Roman" font-size="8.00">+ getMethodName(): String</text>
<text text-anchor="start" x="1399.87" y="-415.401" font-family="Times New Roman" font-size="8.00">+ getAccessLevel(): String</text>
<text text-anchor="start" x="1401.48" y="-406.202" font-family="Times New Roman" font-size="8.00">+ getReturnType(): String</text>
<text text-anchor="start" x="1404.14" y="-397.002" font-family="Times New Roman" font-size="8.00">+ getParamTypes(): List</text>
<text text-anchor="start" x="1406.09" y="-387.803" font-family="Times New Roman" font-size="8.00">+ getExceptions(): List</text>
<text text-anchor="start" x="1400.22" y="-378.604" font-family="Times New Roman" font-size="8.00">+ accept(i0: IVisitor): void</text>
</g>
<!-- ragdoll.code.impl.Method&#45;&gt;ragdoll.code.api.IMethod -->
<g id="edge12" class="edge"><title>ragdoll.code.impl.Method&#45;&gt;ragdoll.code.api.IMethod</title>
<path fill="none" stroke="black" stroke-dasharray="5,2" d="M1437.67,-371.722C1436.11,-352.364 1434.44,-331.552 1432.98,-313.432"/>
<polygon fill="none" stroke="black" points="1436.46,-313.075 1432.17,-303.388 1429.48,-313.637 1436.46,-313.075"/>
</g>
<!-- ragdoll.code.visitor.api.IVisitor -->
<g id="node17" class="node"><title>ragdoll.code.visitor.api.IVisitor</title>
<polygon fill="none" stroke="black" points="1691.09,-218.203 1691.09,-307.797 1818.91,-307.797 1818.91,-218.203 1691.09,-218.203"/>
<text text-anchor="start" x="1737.01" y="-297.397" font-family="Times New Roman" font-size="8.00">«interface»</text>
<text text-anchor="start" x="1705.03" y="-288.198" font-family="Times New Roman" font-size="8.00">ragdoll.code.visitor.api.IVisitor</text>
<polyline fill="none" stroke="black" points="1691.09,-281.398 1818.91,-281.398 "/>
<text text-anchor="start" x="1717.74" y="-270.998" font-family="Times New Roman" font-size="8.00">+ visit(i0: IClass): void</text>
<text text-anchor="start" x="1710.43" y="-261.799" font-family="Times New Roman" font-size="8.00">+ postVisit(i0: IClass): void</text>
<text text-anchor="start" x="1718.19" y="-252.6" font-family="Times New Roman" font-size="8.00">+ visit(i0: IField): void</text>
<text text-anchor="start" x="1717.52" y="-243.401" font-family="Times New Roman" font-size="8.00">+ visit(s0: String): void</text>
<text text-anchor="start" x="1713.97" y="-234.202" font-family="Times New Roman" font-size="8.00">+ visit(i0: IMethod): void</text>
<text text-anchor="start" x="1699.09" y="-225.002" font-family="Times New Roman" font-size="8.00">+ visit(i0: IClassDeclaration): void</text>
</g>
<!-- ragdoll.code.visitor.impl.GVOutputStream -->
<g id="node18" class="node"><title>ragdoll.code.visitor.impl.GVOutputStream</title>
<polygon fill="none" stroke="black" points="1678.56,-362.605 1678.56,-515.395 1831.44,-515.395 1831.44,-362.605 1678.56,-362.605"/>
<text text-anchor="start" x="1686.56" y="-504.995" font-family="Times New Roman" font-size="8.00">ragdoll.code.visitor.impl.GVOutputStream</text>
<polyline fill="none" stroke="black" points="1678.56,-498.195 1831.44,-498.195 "/>
<text text-anchor="start" x="1710.3" y="-487.795" font-family="Times New Roman" font-size="8.00">&#45; sb : java.lang.StringBuffer</text>
<polyline fill="none" stroke="black" points="1678.56,-480.996 1831.44,-480.996 "/>
<text text-anchor="start" x="1724.16" y="-470.596" font-family="Times New Roman" font-size="8.00">+ initBuffer(): void</text>
<text text-anchor="start" x="1723.71" y="-461.397" font-family="Times New Roman" font-size="8.00">+ endBuffer(): void</text>
<text text-anchor="start" x="1696.09" y="-452.198" font-family="Times New Roman" font-size="8.00">&#45; appendBufferLine(s0: String): void</text>
<text text-anchor="start" x="1717.74" y="-442.998" font-family="Times New Roman" font-size="8.00">+ visit(i0: IClass): void</text>
<text text-anchor="start" x="1710.43" y="-433.799" font-family="Times New Roman" font-size="8.00">+ postVisit(i0: IClass): void</text>
<text text-anchor="start" x="1718.19" y="-424.6" font-family="Times New Roman" font-size="8.00">+ visit(i0: IField): void</text>
<text text-anchor="start" x="1717.52" y="-415.401" font-family="Times New Roman" font-size="8.00">+ visit(s0: String): void</text>
<text text-anchor="start" x="1713.97" y="-406.202" font-family="Times New Roman" font-size="8.00">+ visit(i0: IMethod): void</text>
<text text-anchor="start" x="1699.09" y="-397.002" font-family="Times New Roman" font-size="8.00">+ visit(i0: IClassDeclaration): void</text>
<text text-anchor="start" x="1692.29" y="-387.803" font-family="Times New Roman" font-size="8.00">&#45; getLastPartOfType(s0: String): String</text>
<text text-anchor="start" x="1688.68" y="-378.604" font-family="Times New Roman" font-size="8.00">&#45; packagifyClassName(s0: String): String</text>
<text text-anchor="start" x="1724.3" y="-369.405" font-family="Times New Roman" font-size="8.00">+ toString(): String</text>
</g>
<!-- ragdoll.code.visitor.impl.GVOutputStream&#45;&gt;ragdoll.code.visitor.api.IVisitor -->
<g id="edge13" class="edge"><title>ragdoll.code.visitor.impl.GVOutputStream&#45;&gt;ragdoll.code.visitor.api.IVisitor</title>
<path fill="none" stroke="black" stroke-dasharray="5,2" d="M1755,-362.44C1755,-347.677 1755,-332.467 1755,-318.55"/>
<polygon fill="none" stroke="black" points="1758.5,-318.188 1755,-308.188 1751.5,-318.188 1758.5,-318.188"/>
</g>
</g>
</svg>
